<svg width="66" height="64" viewBox="0 0 66 64" fill="none" xmlns="http://www.w3.org/2000/svg">
<ellipse cx="33" cy="31.5224" rx="33" ry="31.5224" fill="#2C5364" fill-opacity="0.933333"/>
<path d="M24.16 24.656V41H20.8L12.568 25.472V40.544H13.888V41H10.6V40.544H11.92V24.656H10.6V24.2H17.224L23.512 36.248V24.656H22.192V24.2H25.48V24.656H24.16ZM26.5821 24.2H39.0621L39.3021 29.192H38.8701C38.2781 27.464 37.5901 26.288 36.8061 25.664C36.0381 25.04 34.8861 24.728 33.3501 24.728H32.6781V32.528H33.7581C34.5261 32.528 35.1661 32.248 35.6781 31.688C36.1901 31.128 36.5421 30.36 36.7341 29.384H37.0941V36.488H36.6861C36.4301 35.288 36.0701 34.432 35.6061 33.92C35.1581 33.408 34.5421 33.152 33.7581 33.152H32.6781V40.472H35.6541V41H26.5821V40.472H27.9981V24.728H26.5821V24.2ZM48.9203 24.416C46.4403 24.416 45.2003 26.808 45.2003 31.592V33.488C45.2003 35.76 45.5283 37.544 46.1843 38.84C46.8403 40.12 47.8083 40.76 49.0883 40.76C50.8483 40.76 52.4643 39.048 53.9363 35.624H54.3683L54.2003 40.976H53.9363C53.8403 40.8 53.7523 40.68 53.6723 40.616C53.5923 40.536 53.4723 40.496 53.3123 40.496C53.1683 40.496 52.5923 40.624 51.5843 40.88C50.5763 41.12 49.5523 41.24 48.5123 41.24C45.9043 41.24 43.8803 40.536 42.4403 39.128C41.0163 37.72 40.3043 35.608 40.3043 32.792C40.3043 29.96 41.0483 27.776 42.5363 26.24C44.0403 24.704 46.0563 23.936 48.5843 23.936C49.5603 23.936 50.5123 24.064 51.4403 24.32C52.3843 24.56 52.9363 24.68 53.0963 24.68C53.2563 24.68 53.3763 24.648 53.4563 24.584C53.5363 24.504 53.6243 24.376 53.7203 24.2H53.9843L54.1763 29.408H53.7443C53.0243 27.792 52.2803 26.56 51.5123 25.712C50.7603 24.848 49.8963 24.416 48.9203 24.416Z" fill="white"/>
</svg>
